<?xml version="1.0" standalone="no"?><!DOCTYPE svg PUBLIC "-//W3C//DTD SVG 1.1//EN" "http://www.w3.org/Graphics/SVG/1.1/DTD/svg11.dtd"><svg t="1542959790055" class="icon" style="" viewBox="0 0 1024 1024" version="1.1" xmlns="http://www.w3.org/2000/svg" p-id="2743" xmlns:xlink="http://www.w3.org/1999/xlink" width="200" height="200"><defs><style type="text/css"></style></defs><path d="M827.733333 413.866667c0-10.666667-4.266667-21.333333-10.666666-27.733334l-55.466667-55.466666c-8.533333-8.533333-17.066667-10.666667-27.733333-10.666667s-19.2 4.266667-27.733334 10.666667L456.533333 578.133333l-138.666666-138.666666c-8.533333-8.533333-17.066667-10.666667-27.733334-10.666667s-19.2 4.266667-27.733333 10.666667l-55.466667 55.466666c-6.4 6.4-10.666667 17.066667-10.666666 27.733334s4.266667 19.2 10.666666 27.733333l221.866667 221.866667c8.533333 8.533333 17.066667 10.666667 27.733333 10.666666s21.333333-4.266667 27.733334-10.666666l332.8-332.8c6.4-6.4 10.666667-14.933333 10.666666-25.6zM981.333333 512c0 85.333333-21.333333 164.266667-64 234.666667-42.666667 72.533333-98.133333 128-170.666666 170.666666-72.533333 42.666667-151.466667 64-234.666667 64s-164.266667-21.333333-234.666667-64c-72.533333-42.666667-128-98.133333-170.666666-170.666666s-64-149.333333-64-234.666667 21.333333-164.266667 64-234.666667c42.666667-72.533333 98.133333-128 170.666666-170.666666 72.533333-42.666667 151.466667-64 234.666667-64s164.266667 21.333333 234.666667 64c72.533333 42.666667 128 98.133333 170.666666 170.666666 42.666667 70.4 64 149.333333 64 234.666667z" p-id="2744"></path></svg>