<?xml version="1.0" standalone="no"?><!DOCTYPE svg PUBLIC "-//W3C//DTD SVG 1.1//EN" "http://www.w3.org/Graphics/SVG/1.1/DTD/svg11.dtd"><svg t="1542959081974" class="icon" style="" viewBox="0 0 1024 1024" version="1.1" xmlns="http://www.w3.org/2000/svg" p-id="2522" xmlns:xlink="http://www.w3.org/1999/xlink" width="200" height="200"><defs><style type="text/css"></style></defs><path d="M512.223 31.569c-270.47 0-489.739 219.27-489.739 489.739s219.27 489.739 489.739 489.739 489.739-219.27 489.739-489.739-219.27-489.739-489.739-489.739zM814.592 350.857l-342.995 364.433c-6.545 6.945-15.405 10.507-24.331 10.507-7.457 0-14.937-2.471-21.126-7.546l-235.809-192.935c-14.269-11.687-16.384-32.723-4.697-46.993 11.687-14.291 32.701-16.384 46.993-4.697l211.701 173.212 321.625-341.749c12.689-13.468 33.792-14.047 47.215-1.425 13.401 12.644 14.047 33.77 1.425 47.193z" p-id="2523"></path></svg>